<?xml version="1.0" encoding="UTF-8"?>
<svg version="1.1" xmlns="http://www.w3.org/2000/svg" width="160" height="160">
<path d="M0 0 C52.8 0 105.6 0 160 0 C160 52.8 160 105.6 160 160 C107.2 160 54.4 160 0 160 C0 107.2 0 54.4 0 0 Z " fill="#000000" transform="translate(0,0)"/>
<path d="M0 0 C2.31243792 -0.02685412 4.6249627 -0.04632841 6.9375 -0.0625 C8.22527344 -0.07410156 9.51304688 -0.08570313 10.83984375 -0.09765625 C14 0 14 0 15 1 C15.23192865 2.51469448 15.41215238 4.03754562 15.5625 5.5625 C15.64628906 6.38878906 15.73007813 7.21507813 15.81640625 8.06640625 C15.87699219 8.70449219 15.93757813 9.34257813 16 10 C14.741875 10.04125 13.48375 10.0825 12.1875 10.125 C11.47980469 10.14820312 10.77210937 10.17140625 10.04296875 10.1953125 C8 10 8 10 5 8 C4.34 8.66 3.68 9.32 3 10 C2.01 10 1.02 10 0 10 C0 6.7 0 3.4 0 0 Z " fill="#131313" transform="translate(108,63)"/>
<path d="M0 0 C2.97 0 5.94 0 9 0 C9.92533106 3.70132424 10.64838975 7.2026093 11 11 C9 13 9 13 6.8359375 13.1953125 C4.55729167 13.13020833 2.27864583 13.06510417 0 13 C0 8.71 0 4.42 0 0 Z " fill="#DEDEDE" transform="translate(42,86)"/>
<path d="M0 0 C2.97 0 5.94 0 9 0 C10 4 10 4 10 6 C10.20625 6.825 10.4125 7.65 10.625 8.5 C10.74875 9.325 10.8725 10.15 11 11 C9 13 9 13 6.8359375 13.1953125 C4.55729167 13.13020833 2.27864583 13.06510417 0 13 C0 8.71 0 4.42 0 0 Z " fill="#EDEDED" transform="translate(95,60)"/>
<path d="M0 0 C0.99 0 1.98 0 3 0 C3 4.62 3 9.24 3 14 C-3.0546875 14.1953125 -3.0546875 14.1953125 -5 14 C-7 12 -7 12 -7.25 9 C-7 6 -7 6 -5 4 C-2.375 3.875 -2.375 3.875 0 4 C0 2.68 0 1.36 0 0 Z " fill="#D6D6D6" transform="translate(82,59)"/>
<path d="M0 0 C0.99 0 1.98 0 3 0 C3 4.62 3 9.24 3 14 C1.72125 14.061875 0.4425 14.12375 -0.875 14.1875 C-1.59429687 14.22230469 -2.31359375 14.25710937 -3.0546875 14.29296875 C-3.69664063 14.19628906 -4.33859375 14.09960938 -5 14 C-7.14915785 10.77626323 -7.38286803 9.73296326 -7 6 C-5 4 -5 4 -2.375 3.875 C-1.59125 3.91625 -0.8075 3.9575 0 4 C0 2.68 0 1.36 0 0 Z " fill="#DEDEDE" transform="translate(115,85)"/>
<path d="M0 0 C2.5 0.25 2.5 0.25 4.5 2.25 C4.75 5.25 4.75 5.25 4.5 8.25 C2.5 10.25 2.5 10.25 0 10.5 C-2.5 10.25 -2.5 10.25 -4.5 8.25 C-4.75 5.25 -4.75 5.25 -4.5 2.25 C-2.5 0.25 -2.5 0.25 0 0 Z " fill="#F7F7F7" transform="translate(56.5,62.75)"/>
<path d="M0 0 C2.31 0 4.62 0 7 0 C7 0.99 7 1.98 7 3 C5.35 2.67 3.7 2.34 2 2 C2 2.99 2 3.98 2 5 C4.97 5.495 4.97 5.495 8 6 C8.625 8.375 8.625 8.375 9 11 C7 13 7 13 3.375 13.125 C2.26125 13.08375 1.1475 13.0425 0 13 C-0.33 11.68 -0.66 10.36 -1 9 C1.31 9.66 3.62 10.32 6 11 C6 10.01 6 9.02 6 8 C5.21625 7.87625 4.4325 7.7525 3.625 7.625 C1 7 1 7 -1 5 C-0.625 2.375 -0.625 2.375 0 0 Z " fill="#DDDDDD" transform="translate(20,60)"/>
<path d="M0 0 C3.0625 0.1875 3.0625 0.1875 5.0625 2.1875 C5.0625 3.5075 5.0625 4.8275 5.0625 6.1875 C4.0725 6.5175 3.0825 6.8475 2.0625 7.1875 C2.7225 7.1875 3.3825 7.1875 4.0625 7.1875 C3.7325 8.1775 3.4025 9.1675 3.0625 10.1875 C0.1875 10.375 0.1875 10.375 -2.9375 10.1875 C-4.9375 7.1875 -4.9375 7.1875 -4.625 4.0625 C-3.71016322 0.23681893 -3.71016322 0.23681893 0 0 Z " fill="#C5C5C5" transform="translate(34.9375,62.8125)"/>
<path d="M0 0 C0.99 0 1.98 0 3 0 C3.33 1.65 3.66 3.3 4 5 C5.32 4.67 6.64 4.34 8 4 C7.608125 4.721875 7.21625 5.44375 6.8125 6.1875 C5.64088949 9.06293369 5.64088949 9.06293369 7.375 11.8125 C7.91125 12.534375 8.4475 13.25625 9 14 C5.125 13.125 5.125 13.125 4 12 C3.67 12.66 3.34 13.32 3 14 C2.01 14 1.02 14 0 14 C0 9.38 0 4.76 0 0 Z " fill="#CECECE" transform="translate(76,85)"/>
<path d="M0 0 C2.5 0.25 2.5 0.25 4.5 2.25 C4.5 3.57 4.5 4.89 4.5 6.25 C2.52 6.25 0.54 6.25 -1.5 6.25 C-1.5 6.91 -1.5 7.57 -1.5 8.25 C0.15 7.92 1.8 7.59 3.5 7.25 C3.17 8.24 2.84 9.23 2.5 10.25 C0.125 10.375 0.125 10.375 -2.5 10.25 C-4.5 8.25 -4.5 8.25 -4.75 5.25 C-4.43608753 1.48305032 -3.83691092 0.38369109 0 0 Z " fill="#F0F0F0" transform="translate(90.5,88.75)"/>
<path d="M0 0 C1.99954746 -0.04254356 4.00041636 -0.04080783 6 0 C7.58272601 1.58272601 7.34735747 3.38034003 7.5625 5.5625 C7.64628906 6.38878906 7.73007813 7.21507813 7.81640625 8.06640625 C7.87699219 8.70449219 7.93757813 9.34257813 8 10 C5.36 10 2.72 10 0 10 C-0.33 8.35 -0.66 6.7 -1 5 C0.65 4.67 2.3 4.34 4 4 C4 3.34 4 2.68 4 2 C2.68 2.33 1.36 2.66 0 3 C0 2.01 0 1.02 0 0 Z " fill="#DCDCDC" transform="translate(116,63)"/>
<path d="M0 0 C6.15234375 -0.09765625 6.15234375 -0.09765625 8 0 C9 1 9 1 9.09765625 3.06640625 C9.08605469 3.89011719 9.07445313 4.71382813 9.0625 5.5625 C9.05347656 6.38878906 9.04445313 7.21507813 9.03515625 8.06640625 C9.02355469 8.70449219 9.01195313 9.34257813 9 10 C8.01 10 7.02 10 6 10 C6 7.36 6 4.72 6 2 C5.01 2 4.02 2 3 2 C3 4.64 3 7.28 3 10 C2.01 10 1.02 10 0 10 C0 6.7 0 3.4 0 0 Z " fill="#DBDBDB" transform="translate(97,89)"/>
<path d="M0 0 C6.15234375 -0.09765625 6.15234375 -0.09765625 8 0 C9 1 9 1 9.09765625 3.06640625 C9.08605469 3.89011719 9.07445313 4.71382813 9.0625 5.5625 C9.05347656 6.38878906 9.04445313 7.21507813 9.03515625 8.06640625 C9.02355469 8.70449219 9.01195313 9.34257813 9 10 C8.01 10 7.02 10 6 10 C6 7.36 6 4.72 6 2 C5.01 2 4.02 2 3 2 C3 4.64 3 7.28 3 10 C2.01 10 1.02 10 0 10 C0 6.7 0 3.4 0 0 Z " fill="#DADADA" transform="translate(64,63)"/>
<path d="M0 0 C2.31 0 4.62 0 7 0 C5.68 0.33 4.36 0.66 3 1 C3 2.32 3 3.64 3 5 C4.32 5.33 5.64 5.66 7 6 C5.68 6.33 4.36 6.66 3 7 C3 8.32 3 9.64 3 11 C4.65 11.33 6.3 11.66 8 12 C8 12.33 8 12.66 8 13 C5.36 13 2.72 13 0 13 C0 8.71 0 4.42 0 0 Z " fill="#E9E9E9" transform="translate(42,86)"/>
<path d="M0 0 C3.375 -0.125 3.375 -0.125 7 0 C9 2 9 2 9.1953125 3.9453125 C9.13020833 5.96354167 9.06510417 7.98177083 9 10 C8.01 10 7.02 10 6 10 C6 7.36 6 4.72 6 2 C5.01 2.33 4.02 2.66 3 3 C2.67 5.31 2.34 7.62 2 10 C1.34 10 0.68 10 0 10 C0 6.7 0 3.4 0 0 Z " fill="#DFDFDF" transform="translate(132,63)"/>
<path d="M0 0 C1.99954746 -0.04254356 4.00041636 -0.04080783 6 0 C8.16090886 2.16090886 7.72400131 7.2005847 8 10 C5.03 10 2.06 10 -1 10 C-0.67 8.68 -0.34 7.36 0 6 C0.33 6.66 0.66 7.32 1 8 C1.99 7.67 2.98 7.34 4 7 C4.33 6.34 4.66 5.68 5 5 C4.01 4.67 3.02 4.34 2 4 C2.66 4 3.32 4 4 4 C4 3.34 4 2.68 4 2 C2.35 2.33 0.7 2.66 -1 3 C-0.67 2.01 -0.34 1.02 0 0 Z " fill="#EDEDED" transform="translate(56,89)"/>
<path d="M0 0 C0.94875 0.04125 1.8975 0.0825 2.875 0.125 C3.205 1.115 3.535 2.105 3.875 3.125 C2.225 3.125 0.575 3.125 -1.125 3.125 C-1.125 4.445 -1.125 5.765 -1.125 7.125 C0.525 7.125 2.175 7.125 3.875 7.125 C3.545 8.115 3.215 9.105 2.875 10.125 C0 10.3125 0 10.3125 -3.125 10.125 C-5.27415785 6.90126323 -5.50786803 5.85796326 -5.125 2.125 C-3.125 0.125 -3.125 0.125 0 0 Z " fill="#E5E5E5" transform="translate(70.125,88.875)"/>
<path d="M0 0 C0.66 0 1.32 0 2 0 C2 4.62 2 9.24 2 14 C-0.64 14 -3.28 14 -6 14 C-6 13.01 -6 12.02 -6 11 C-4.68 11 -3.36 11 -2 11 C-1.34 7.37 -0.68 3.74 0 0 Z " fill="#E6E6E6" transform="translate(83,59)"/>
<path d="M0 0 C1.4540625 0.0309375 1.4540625 0.0309375 2.9375 0.0625 C3.2675 1.0525 3.5975 2.0425 3.9375 3.0625 C2.2875 3.0625 0.6375 3.0625 -1.0625 3.0625 C-1.0625 4.3825 -1.0625 5.7025 -1.0625 7.0625 C0.5875 7.0625 2.2375 7.0625 3.9375 7.0625 C3.6075 8.0525 3.2775 9.0425 2.9375 10.0625 C0.0625 10.25 0.0625 10.25 -3.0625 10.0625 C-5.0625 7.0625 -5.0625 7.0625 -4.75 3.9375 C-3.82710098 0.0781041 -3.82710098 0.0781041 0 0 Z " fill="#DEDEDE" transform="translate(46.0625,62.9375)"/>
<path d="M0 0 C0.66 0.99 1.32 1.98 2 3 C1.67 3.66 1.34 4.32 1 5 C2.65 4.67 4.3 4.34 6 4 C6.33 5.65 6.66 7.3 7 9 C5.0625 9.5625 5.0625 9.5625 3 10 C2.67 9.67 2.34 9.34 2 9 C1.34 9.66 0.68 10.32 0 11 C-1.49821059 7.62902617 -2 5.79557881 -2 2 C-1.34 1.34 -0.68 0.68 0 0 Z " fill="#383838" transform="translate(54,87)"/>
<path d="M0 0 C1.134375 0.020625 2.26875 0.04125 3.4375 0.0625 C3.5625 5.8125 3.5625 5.8125 2.4375 8.0625 C1.7775 7.7325 1.1175 7.4025 0.4375 7.0625 C0.7675 6.4025 1.0975 5.7425 1.4375 5.0625 C-0.2125 5.3925 -1.8625 5.7225 -3.5625 6.0625 C-3.94468767 4.40635343 -4.27645102 2.73792976 -4.5625 1.0625 C-3.5625 0.0625 -3.5625 0.0625 0 0 Z " fill="#0F0F0F" transform="translate(72.5625,90.9375)"/>
<path d="M0 0 C0.66 0.66 1.32 1.32 2 2 C1.34 3.98 0.68 5.96 0 8 C-1.98 8 -3.96 8 -6 8 C-6.33 6.35 -6.66 4.7 -7 3 C-3.25 1.875 -3.25 1.875 -1 3 C-0.67 2.01 -0.34 1.02 0 0 Z " fill="#0D0D0D" transform="translate(51,63)"/>
<path d="M0 0 C0.33 1.65 0.66 3.3 1 5 C-0.75 6.125 -0.75 6.125 -3 7 C-5.25 6.125 -5.25 6.125 -7 5 C-7 3.68 -7 2.36 -7 1 C-2.25 0 -2.25 0 0 0 Z " fill="#D7D7D7" transform="translate(105,66)"/>
<path d="M0 0 C0.66 0 1.32 0 2 0 C2 4.62 2 9.24 2 14 C0.68 13.67 -0.64 13.34 -2 13 C-1.34 8.71 -0.68 4.42 0 0 Z " fill="#E5E5E5" transform="translate(116,85)"/>
<path d="M0 0 C1.98 0 3.96 0 6 0 C6 0.66 6 1.32 6 2 C5.01 2 4.02 2 3 2 C3 4.64 3 7.28 3 10 C2.01 10 1.02 10 0 10 C0 6.7 0 3.4 0 0 Z " fill="#DEDEDE" transform="translate(108,63)"/>
<path d="M0 0 C-0.375 1.9375 -0.375 1.9375 -1 4 C-3.6666419 5.33332095 -5.16680303 4.67102033 -8 4 C-8 2.68 -8 1.36 -8 0 C-4.94736336 -0.98120464 -3.05263664 -0.98120464 0 0 Z " fill="#929292" transform="translate(105,61)"/>
<path d="M0 0 C0.33 1.65 0.66 3.3 1 5 C-0.98 5 -2.96 5 -5 5 C-5.33 3.35 -5.66 1.7 -6 0 C-3.50907189 -1.24546405 -2.58919267 -0.7767578 0 0 Z " fill="#B2B2B2" transform="translate(121,68)"/>
<path d="M0 0 C1.65 0 3.3 0 5 0 C5 3.3 5 6.6 5 10 C2 10 2 10 0 9 C0.33 8.67 0.66 8.34 1 8 C1.24733137 3.85723125 1.24733137 3.85723125 0 0 Z " fill="#262626" transform="translate(59,63)"/>
<path d="M0 0 C0.99 0 1.98 0 3 0 C3 3.3 3 6.6 3 10 C2.01 10 1.02 10 0 10 C0 6.7 0 3.4 0 0 Z " fill="#DBDBDB" transform="translate(126,63)"/>
<path d="M0 0 C0.66 0 1.32 0 2 0 C3.33257403 9.41002278 3.33257403 9.41002278 2 14 C1.34 14 0.68 14 0 14 C0 9.38 0 4.76 0 0 Z " fill="#F6F6F6" transform="translate(76,85)"/>
<path d="M0 0 C2.31 0 4.62 0 7 0 C7 0.99 7 1.98 7 3 C5.35 2.67 3.7 2.34 2 2 C2.33 3.32 2.66 4.64 3 6 C1.68 5.67 0.36 5.34 -1 5 C-0.67 3.35 -0.34 1.7 0 0 Z " fill="#EAEAEA" transform="translate(20,60)"/>
<path d="M0 0 C-1 3 -1 3 -2 4 C-3.66617115 4.04063832 -5.33388095 4.042721 -7 4 C-7 2.68 -7 1.36 -7 0 C-3.98968256 -0.93423645 -3.13349732 -1.04449911 0 0 Z " fill="#737373" transform="translate(52,87)"/>
<path d="M0 0 C1.65 0 3.3 0 5 0 C5 0.66 5 1.32 5 2 C4.01 2.495 4.01 2.495 3 3 C2.59270772 5.32156597 2.25561323 7.6568787 2 10 C1.34 10 0.68 10 0 10 C0 6.7 0 3.4 0 0 Z " fill="#F5F5F5" transform="translate(132,63)"/>
<path d="M0 0 C1.98 0.495 1.98 0.495 4 1 C3.67 2.65 3.34 4.3 3 6 C1.68 5.67 0.36 5.34 -1 5 C-0.67 3.35 -0.34 1.7 0 0 Z " fill="#1F1F1F" transform="translate(55,65)"/>
<path d="M0 0 C1.98 0 3.96 0 6 0 C6 1.32 6 2.64 6 4 C3.69 4.33 1.38 4.66 -1 5 C-0.67 3.35 -0.34 1.7 0 0 Z " fill="#868686" transform="translate(89,91)"/>
<path d="M0 0 C1.32 0 2.64 0 4 0 C4 1.98 4 3.96 4 6 C2.0625 5.6875 2.0625 5.6875 0 5 C-0.33 4.01 -0.66 3.02 -1 2 C-0.67 1.34 -0.34 0.68 0 0 Z " fill="#1F1F1F" transform="translate(82,91)"/>
<path d="M0 0 C0.94875 0.04125 1.8975 0.0825 2.875 0.125 C3.205 1.115 3.535 2.105 3.875 3.125 C1.565 3.125 -0.745 3.125 -3.125 3.125 C-3.785 4.445 -4.445 5.765 -5.125 7.125 C-5.25 4.75 -5.25 4.75 -5.125 2.125 C-3.125 0.125 -3.125 0.125 0 0 Z " fill="#D9D9D9" transform="translate(70.125,88.875)"/>
<path d="M0 0 C1.4540625 0.0309375 1.4540625 0.0309375 2.9375 0.0625 C3.2675 1.0525 3.5975 2.0425 3.9375 3.0625 C3.174375 3.000625 2.41125 2.93875 1.625 2.875 C-1.10775312 2.80351915 -1.10775312 2.80351915 -2.875 4.5625 C-3.266875 5.0575 -3.65875 5.5525 -4.0625 6.0625 C-4.105221 4.39638095 -4.10313832 2.72867115 -4.0625 1.0625 C-3.0625 0.0625 -3.0625 0.0625 0 0 Z " fill="#E8E8E8" transform="translate(46.0625,62.9375)"/>
<path d="M0 0 C1.99954746 -0.04254356 4.00041636 -0.04080783 6 0 C7 1 7 1 7.0625 3.5625 C7.041875 4.366875 7.02125 5.17125 7 6 C6.4121875 5.2575 6.4121875 5.2575 5.8125 4.5 C3.44908285 2.54406857 1.98564997 2.75792027 -1 3 C-0.67 2.01 -0.34 1.02 0 0 Z " fill="#D8D8D8" transform="translate(56,89)"/>
<path d="M0 0 C0.66 0.66 1.32 1.32 2 2 C1.34 3.98 0.68 5.96 0 8 C-0.99 7.34 -1.98 6.68 -3 6 C-3 5.01 -3 4.02 -3 3 C-2.34 3 -1.68 3 -1 3 C-0.67 2.01 -0.34 1.02 0 0 Z " fill="#212121" transform="translate(51,63)"/>
<path d="M0 0 C0.99 0.33 1.98 0.66 3 1 C2.67 2.65 2.34 4.3 2 6 C1.01 5.67 0.02 5.34 -1 5 C-0.67 3.35 -0.34 1.7 0 0 Z " fill="#050505" transform="translate(112,91)"/>
<path d="M0 0 C0.99 0.33 1.98 0.66 3 1 C2.67 2.65 2.34 4.3 2 6 C1.01 5.67 0.02 5.34 -1 5 C-0.67 3.35 -0.34 1.7 0 0 Z " fill="#020202" transform="translate(79,65)"/>
<path d="M0 0 C1.65 0 3.3 0 5 0 C4.67 1.32 4.34 2.64 4 4 C2.68 4 1.36 4 0 4 C0 2.68 0 1.36 0 0 Z " fill="#0F0F0F" transform="translate(45,93)"/>
<path d="M0 0 C0.33 0.66 0.66 1.32 1 2 C1.66 2 2.32 2 3 2 C2.67 4.31 2.34 6.62 2 9 C1.34 8.67 0.68 8.34 0 8 C0 5.36 0 2.72 0 0 Z " fill="#1E1E1E" transform="translate(123,65)"/>
<path d="M0 0 C2.475 0.495 2.475 0.495 5 1 C4.67 1.99 4.34 2.98 4 4 C2.68 4 1.36 4 0 4 C0 2.68 0 1.36 0 0 Z " fill="#0B0B0B" transform="translate(98,67)"/>
<path d="M0 0 C1.98 0 3.96 0 6 0 C6 0.99 6 1.98 6 3 C4.02 3 2.04 3 0 3 C0 2.01 0 1.02 0 0 Z " fill="#B3B3B3" transform="translate(87,65)"/>
<path d="M0 0 C2.64 0 5.28 0 8 0 C7.67 0.99 7.34 1.98 7 3 C4.625 3.1875 4.625 3.1875 2 3 C1.34 2.01 0.68 1.02 0 0 Z " fill="#F1F1F1" transform="translate(52,70)"/>
<path d="M0 0 C1.65 0.33 3.3 0.66 5 1 C5 1.99 5 2.98 5 4 C3.35 3.67 1.7 3.34 0 3 C0 2.01 0 1.02 0 0 Z " fill="#1B1B1B" transform="translate(21,67)"/>
<path d="M0 0 C0.33 2.64 0.66 5.28 1 8 C0.34 8 -0.32 8 -1 8 C-1.12375 7.195625 -1.2475 6.39125 -1.375 5.5625 C-1.684375 4.2940625 -1.684375 4.2940625 -2 3 C-2.66 2.67 -3.32 2.34 -4 2 C-1 0 -1 0 0 0 Z " fill="#FBFBFB" transform="translate(123,65)"/>
</svg>
