<?xml version="1.0" encoding="UTF-8"?>
<svg version="1.1" xmlns="http://www.w3.org/2000/svg" width="160" height="160">
<path d="M0 0 C52.8 0 105.6 0 160 0 C160 52.8 160 105.6 160 160 C107.2 160 54.4 160 0 160 C0 107.2 0 54.4 0 0 Z " fill="#000000" transform="translate(0,0)"/>
<path d="M0 0 C2.97 0 5.94 0 9 0 C9.92533106 3.70132424 10.64838975 7.2026093 11 11 C9 13 9 13 6.8359375 13.1953125 C4.55729167 13.13020833 2.27864583 13.06510417 0 13 C0 8.71 0 4.42 0 0 Z " fill="#DEDEDE" transform="translate(42,86)"/>
<path d="M0 0 C0.99 0 1.98 0 3 0 C3 4.62 3 9.24 3 14 C1.72125 14.061875 0.4425 14.12375 -0.875 14.1875 C-1.59429687 14.22230469 -2.31359375 14.25710937 -3.0546875 14.29296875 C-3.69664063 14.19628906 -4.33859375 14.09960938 -5 14 C-7.14915785 10.77626323 -7.38286803 9.73296326 -7 6 C-5 4 -5 4 -2.375 3.875 C-1.59125 3.91625 -0.8075 3.9575 0 4 C0 2.68 0 1.36 0 0 Z " fill="#D9D9D9" transform="translate(108,59)"/>
<path d="M0 0 C0.99 0 1.98 0 3 0 C3 4.62 3 9.24 3 14 C1.72125 14.061875 0.4425 14.12375 -0.875 14.1875 C-1.59429687 14.22230469 -2.31359375 14.25710937 -3.0546875 14.29296875 C-3.69664063 14.19628906 -4.33859375 14.09960938 -5 14 C-7.14915785 10.77626323 -7.38286803 9.73296326 -7 6 C-5 4 -5 4 -2.375 3.875 C-1.59125 3.91625 -0.8075 3.9575 0 4 C0 2.68 0 1.36 0 0 Z " fill="#DEDEDE" transform="translate(115,85)"/>
<path d="M0 0 C6.57692308 0.57692308 6.57692308 0.57692308 8 2 C8.25 4.9375 8.25 4.9375 8 8 C4.77626323 10.14915785 3.73296326 10.38286803 0 10 C-2 8 -2 8 -2.25 5 C-2 2 -2 2 0 0 Z " fill="#D5D5D5" transform="translate(62,63)"/>
<path d="M0 0 C0.99 0 1.98 0 3 0 C3.33 1.65 3.66 3.3 4 5 C5.32 4.67 6.64 4.34 8 4 C7.608125 4.721875 7.21625 5.44375 6.8125 6.1875 C5.64088949 9.06293369 5.64088949 9.06293369 7.375 11.8125 C7.91125 12.534375 8.4475 13.25625 9 14 C5.125 13.125 5.125 13.125 4 12 C3.67 12.66 3.34 13.32 3 14 C2.01 14 1.02 14 0 14 C0 9.38 0 4.76 0 0 Z " fill="#CECECE" transform="translate(76,85)"/>
<path d="M0 0 C2.5 0.25 2.5 0.25 4.5 2.25 C4.5 3.57 4.5 4.89 4.5 6.25 C2.52 6.25 0.54 6.25 -1.5 6.25 C-1.5 6.91 -1.5 7.57 -1.5 8.25 C0.15 7.92 1.8 7.59 3.5 7.25 C3.17 8.24 2.84 9.23 2.5 10.25 C0.125 10.375 0.125 10.375 -2.5 10.25 C-4.5 8.25 -4.5 8.25 -4.75 5.25 C-4.43608753 1.48305032 -3.83691092 0.38369109 0 0 Z " fill="#F0F0F0" transform="translate(90.5,88.75)"/>
<path d="M0 0 C1.134375 0.020625 2.26875 0.04125 3.4375 0.0625 C3.4375 1.0525 3.4375 2.0425 3.4375 3.0625 C0.4675 2.5675 0.4675 2.5675 -2.5625 2.0625 C-1.16933123 4.84883754 0.59730516 4.99742694 3.4375 6.0625 C4.4375 7.0625 4.4375 7.0625 4.5 9.625 C4.479375 10.429375 4.45875 11.23375 4.4375 12.0625 C1.72870665 13.41689668 -0.57183268 13.12751451 -3.5625 13.0625 C-3.8925 11.7425 -4.2225 10.4225 -4.5625 9.0625 C-1.5925 9.5575 -1.5925 9.5575 1.4375 10.0625 C1.7675 9.4025 2.0975 8.7425 2.4375 8.0625 C0.1275 7.4025 -2.1825 6.7425 -4.5625 6.0625 C-4.605221 4.39638095 -4.60313832 2.72867115 -4.5625 1.0625 C-3.5625 0.0625 -3.5625 0.0625 0 0 Z " fill="#E8E8E8" transform="translate(53.5625,59.9375)"/>
<path d="M0 0 C6.15234375 -0.09765625 6.15234375 -0.09765625 8 0 C9 1 9 1 9.09765625 3.06640625 C9.08605469 3.89011719 9.07445313 4.71382813 9.0625 5.5625 C9.05347656 6.38878906 9.04445313 7.21507813 9.03515625 8.06640625 C9.02355469 8.70449219 9.01195313 9.34257813 9 10 C8.01 10 7.02 10 6 10 C6 7.36 6 4.72 6 2 C5.01 2 4.02 2 3 2 C3 4.64 3 7.28 3 10 C2.01 10 1.02 10 0 10 C0 6.7 0 3.4 0 0 Z " fill="#DBDBDB" transform="translate(97,89)"/>
<path d="M0 0 C0.99 0 1.98 0 3 0 C3 2.64 3 5.28 3 8 C3.99 8 4.98 8 6 8 C6 5.36 6 2.72 6 0 C6.99 0 7.98 0 9 0 C9 3.3 9 6.6 9 10 C2.84765625 10.09765625 2.84765625 10.09765625 1 10 C0 9 0 9 -0.09765625 6.93359375 C-0.08605469 6.10988281 -0.07445313 5.28617187 -0.0625 4.4375 C-0.05347656 3.61121094 -0.04445313 2.78492187 -0.03515625 1.93359375 C-0.02355469 1.29550781 -0.01195313 0.65742187 0 0 Z " fill="#DCDCDC" transform="translate(72,63)"/>
<path d="M0 0 C2.31 0 4.62 0 7 0 C5.68 0.33 4.36 0.66 3 1 C3 2.32 3 3.64 3 5 C4.32 5.33 5.64 5.66 7 6 C5.68 6.33 4.36 6.66 3 7 C3 8.32 3 9.64 3 11 C4.65 11.33 6.3 11.66 8 12 C8 12.33 8 12.66 8 13 C5.36 13 2.72 13 0 13 C0 8.71 0 4.42 0 0 Z " fill="#E9E9E9" transform="translate(42,86)"/>
<path d="M0 0 C1.99954746 -0.04254356 4.00041636 -0.04080783 6 0 C8.16090886 2.16090886 7.72400131 7.2005847 8 10 C5.03 10 2.06 10 -1 10 C-0.67 8.68 -0.34 7.36 0 6 C0.33 6.66 0.66 7.32 1 8 C1.99 7.67 2.98 7.34 4 7 C4.33 6.34 4.66 5.68 5 5 C4.01 4.67 3.02 4.34 2 4 C2.66 4 3.32 4 4 4 C4 3.34 4 2.68 4 2 C2.35 2.33 0.7 2.66 -1 3 C-0.67 2.01 -0.34 1.02 0 0 Z " fill="#EDEDED" transform="translate(56,89)"/>
<path d="M0 0 C0.94875 0.04125 1.8975 0.0825 2.875 0.125 C2.875 1.115 2.875 2.105 2.875 3.125 C1.225 2.795 -0.425 2.465 -2.125 2.125 C-2.125 4.105 -2.125 6.085 -2.125 8.125 C-0.475 7.465 1.175 6.805 2.875 6.125 C2.875 7.445 2.875 8.765 2.875 10.125 C0 10.25 0 10.25 -3.125 10.125 C-5.125 8.125 -5.125 8.125 -5.375 5.125 C-5.02345647 0.90647769 -4.22997422 0.16919897 0 0 Z " fill="#EAEAEA" transform="translate(96.125,62.875)"/>
<path d="M0 0 C0.94875 0.04125 1.8975 0.0825 2.875 0.125 C3.205 1.115 3.535 2.105 3.875 3.125 C2.225 3.125 0.575 3.125 -1.125 3.125 C-1.125 4.445 -1.125 5.765 -1.125 7.125 C0.525 7.125 2.175 7.125 3.875 7.125 C3.545 8.115 3.215 9.105 2.875 10.125 C0 10.3125 0 10.3125 -3.125 10.125 C-5.27415785 6.90126323 -5.50786803 5.85796326 -5.125 2.125 C-3.125 0.125 -3.125 0.125 0 0 Z " fill="#E5E5E5" transform="translate(70.125,88.875)"/>
<path d="M0 0 C0.66 0.99 1.32 1.98 2 3 C1.67 3.66 1.34 4.32 1 5 C2.65 4.67 4.3 4.34 6 4 C6.33 5.65 6.66 7.3 7 9 C5.0625 9.5625 5.0625 9.5625 3 10 C2.67 9.67 2.34 9.34 2 9 C1.34 9.66 0.68 10.32 0 11 C-1.49821059 7.62902617 -2 5.79557881 -2 2 C-1.34 1.34 -0.68 0.68 0 0 Z " fill="#383838" transform="translate(54,87)"/>
<path d="M0 0 C1.134375 0.020625 2.26875 0.04125 3.4375 0.0625 C3.5625 5.8125 3.5625 5.8125 2.4375 8.0625 C1.7775 7.7325 1.1175 7.4025 0.4375 7.0625 C0.7675 6.4025 1.0975 5.7425 1.4375 5.0625 C-0.2125 5.3925 -1.8625 5.7225 -3.5625 6.0625 C-3.94468767 4.40635343 -4.27645102 2.73792976 -4.5625 1.0625 C-3.5625 0.0625 -3.5625 0.0625 0 0 Z " fill="#0F0F0F" transform="translate(72.5625,90.9375)"/>
<path d="M0 0 C0.66 0 1.32 0 2 0 C2 4.62 2 9.24 2 14 C0.68 13.67 -0.64 13.34 -2 13 C-1.34 8.71 -0.68 4.42 0 0 Z " fill="#E5E5E5" transform="translate(116,85)"/>
<path d="M0 0 C2.31 0 4.62 0 7 0 C7.33 1.98 7.66 3.96 8 6 C7.4225 5.814375 6.845 5.62875 6.25 5.4375 C3.79307475 4.95976454 2.35602466 5.24270636 0 6 C0 4.02 0 2.04 0 0 Z " fill="#0F0F0F" transform="translate(94,65)"/>
<path d="M0 0 C1.65 0.33 3.3 0.66 5 1 C5 2.65 5 4.3 5 6 C2.29120665 7.35439668 -0.00933268 7.06501451 -3 7 C-3.33 5.68 -3.66 4.36 -4 3 C-1.03 3.495 -1.03 3.495 2 4 C2.33 3.34 2.66 2.68 3 2 C2.01 1.67 1.02 1.34 0 1 C0 0.67 0 0.34 0 0 Z " fill="#EFEFEF" transform="translate(53,66)"/>
<path d="M0 0 C0.66 0 1.32 0 2 0 C3.33257403 9.41002278 3.33257403 9.41002278 2 14 C1.34 14 0.68 14 0 14 C0 9.38 0 4.76 0 0 Z " fill="#F6F6F6" transform="translate(76,85)"/>
<path d="M0 0 C1.98 0 3.96 0 6 0 C6 0.66 6 1.32 6 2 C5.01 2 4.02 2 3 2 C2.67 4.64 2.34 7.28 2 10 C1.34 10 0.68 10 0 10 C0 6.7 0 3.4 0 0 Z " fill="#F6F6F6" transform="translate(84,63)"/>
<path d="M0 0 C0.66 0.99 1.32 1.98 2 3 C4.86724686 2.42655063 5.8614515 2.1385485 8 0 C8 1.65 8 3.3 8 5 C4.625 5.625 4.625 5.625 1 6 C0.34 5.34 -0.32 4.68 -1 4 C-0.625 1.875 -0.625 1.875 0 0 Z " fill="#EFEFEF" transform="translate(61,67)"/>
<path d="M0 0 C-1 3 -1 3 -2 4 C-3.66617115 4.04063832 -5.33388095 4.042721 -7 4 C-7 2.68 -7 1.36 -7 0 C-3.98968256 -0.93423645 -3.13349732 -1.04449911 0 0 Z " fill="#737373" transform="translate(52,87)"/>
<path d="M0 0 C0.99 0 1.98 0 3 0 C3 2.64 3 5.28 3 8 C2.01 8 1.02 8 0 8 C0 5.36 0 2.72 0 0 Z " fill="#060606" transform="translate(100,91)"/>
<path d="M0 0 C0.33 0 0.66 0 1 0 C1 1.65 1 3.3 1 5 C2.65 4.34 4.3 3.68 6 3 C6 4.32 6 5.64 6 7 C3.125 7.1875 3.125 7.1875 0 7 C-0.66 6.01 -1.32 5.02 -2 4 C-1.34 4 -0.68 4 0 4 C0 2.68 0 1.36 0 0 Z " fill="#D3D3D3" transform="translate(93,66)"/>
<path d="M0 0 C0.66 0 1.32 0 2 0 C2 3.63 2 7.26 2 11 C-0.7839183 9.60804085 -0.97898997 7.84424221 -2 5 C-1.34 5 -0.68 5 0 5 C0 3.35 0 1.7 0 0 Z " fill="#FAFAFA" transform="translate(109,59)"/>
<path d="M0 0 C1.98 0 3.96 0 6 0 C6 1.32 6 2.64 6 4 C3.69 4.33 1.38 4.66 -1 5 C-0.67 3.35 -0.34 1.7 0 0 Z " fill="#868686" transform="translate(89,91)"/>
<path d="M0 0 C1.32 0 2.64 0 4 0 C4 1.98 4 3.96 4 6 C2.0625 5.6875 2.0625 5.6875 0 5 C-0.33 4.01 -0.66 3.02 -1 2 C-0.67 1.34 -0.34 0.68 0 0 Z " fill="#1F1F1F" transform="translate(82,91)"/>
<path d="M0 0 C0.94875 0.04125 1.8975 0.0825 2.875 0.125 C3.205 1.115 3.535 2.105 3.875 3.125 C1.565 3.125 -0.745 3.125 -3.125 3.125 C-3.785 4.445 -4.445 5.765 -5.125 7.125 C-5.25 4.75 -5.25 4.75 -5.125 2.125 C-3.125 0.125 -3.125 0.125 0 0 Z " fill="#D9D9D9" transform="translate(70.125,88.875)"/>
<path d="M0 0 C1.32 0.33 2.64 0.66 4 1 C3.67 2.65 3.34 4.3 3 6 C2.01 6 1.02 6 0 6 C0 4.02 0 2.04 0 0 Z " fill="#0D0D0D" transform="translate(63,65)"/>
<path d="M0 0 C0.99 0 1.98 0 3 0 C3 1.98 3 3.96 3 6 C1.68 5.67 0.36 5.34 -1 5 C-0.67 3.35 -0.34 1.7 0 0 Z " fill="#0F0F0F" transform="translate(105,65)"/>
<path d="M0 0 C1.32 0 2.64 0 4 0 C3.625 1.9375 3.625 1.9375 3 4 C2.01 4.495 2.01 4.495 1 5 C0.34 5.99 -0.32 6.98 -1 8 C-1.125 2.25 -1.125 2.25 0 0 Z " fill="#292929" transform="translate(87,65)"/>
<path d="M0 0 C1.99954746 -0.04254356 4.00041636 -0.04080783 6 0 C7 1 7 1 7.0625 3.5625 C7.041875 4.366875 7.02125 5.17125 7 6 C6.4121875 5.2575 6.4121875 5.2575 5.8125 4.5 C3.44908285 2.54406857 1.98564997 2.75792027 -1 3 C-0.67 2.01 -0.34 1.02 0 0 Z " fill="#D8D8D8" transform="translate(56,89)"/>
<path d="M0 0 C0.99 0.33 1.98 0.66 3 1 C2.67 2.65 2.34 4.3 2 6 C1.01 5.67 0.02 5.34 -1 5 C-0.67 3.35 -0.34 1.7 0 0 Z " fill="#050505" transform="translate(112,91)"/>
<path d="M0 0 C1.65 0 3.3 0 5 0 C4.67 1.32 4.34 2.64 4 4 C2.68 4 1.36 4 0 4 C0 2.68 0 1.36 0 0 Z " fill="#0F0F0F" transform="translate(45,93)"/>
<path d="M0 0 C1.65 0.33 3.3 0.66 5 1 C4.67 1.99 4.34 2.98 4 4 C2.35 3.67 0.7 3.34 -1 3 C-0.67 2.01 -0.34 1.02 0 0 Z " fill="#2C2C2C" transform="translate(51,67)"/>
</svg>
