<?xml version="1.0" encoding="UTF-8"?>
<svg version="1.1" xmlns="http://www.w3.org/2000/svg" width="160" height="160">
<path d="M0 0 C52.8 0 105.6 0 160 0 C160 52.8 160 105.6 160 160 C107.2 160 54.4 160 0 160 C0 107.2 0 54.4 0 0 Z " fill="#000000" transform="translate(0,0)"/>
<path d="M0 0 C0.99 0 1.98 0 3 0 C3 4.62 3 9.24 3 14 C1.72125 14.061875 0.4425 14.12375 -0.875 14.1875 C-1.59429687 14.22230469 -2.31359375 14.25710937 -3.0546875 14.29296875 C-3.69664063 14.19628906 -4.33859375 14.09960938 -5 14 C-7.14915785 10.77626323 -7.38286803 9.73296326 -7 6 C-5 4 -5 4 -2.375 3.875 C-1.59125 3.91625 -0.8075 3.9575 0 4 C0 2.68 0 1.36 0 0 Z " fill="#D9D9D9" transform="translate(108,59)"/>
<path d="M0 0 C0.66 0 1.32 0 2 0 C2 4.62 2 9.24 2 14 C-0.64 14 -3.28 14 -6 14 C-7.36952673 11.26094655 -7.12621361 9.02912668 -7 6 C-6.67 5.34 -6.34 4.68 -6 4 C-4.35 4 -2.7 4 -1 4 C-0.67 2.68 -0.34 1.36 0 0 Z " fill="#F6F6F6" transform="translate(118,85)"/>
<path d="M0 0 C0.99 0.103125 1.98 0.20625 3 0.3125 C5.14915785 3.53623677 5.38286803 4.57953674 5 8.3125 C3 10.3125 3 10.3125 0 10.625 C-0.99 10.521875 -1.98 10.41875 -3 10.3125 C-5.14915785 7.08876323 -5.38286803 6.04546326 -5 2.3125 C-3 0.3125 -3 0.3125 0 0 Z " fill="#DADADA" transform="translate(62,88.6875)"/>
<path d="M0 0 C6.57692308 0.57692308 6.57692308 0.57692308 8 2 C8.25 4.9375 8.25 4.9375 8 8 C4.77626323 10.14915785 3.73296326 10.38286803 0 10 C-2 8 -2 8 -2.25 5 C-2 2 -2 2 0 0 Z " fill="#D5D5D5" transform="translate(62,63)"/>
<path d="M0 0 C0.99 0.103125 1.98 0.20625 3 0.3125 C5 3.3125 5 3.3125 5 6.3125 C4.01 6.6425 3.02 6.9725 2 7.3125 C2.66 7.3125 3.32 7.3125 4 7.3125 C3.67 8.3025 3.34 9.2925 3 10.3125 C0.125 10.5 0.125 10.5 -3 10.3125 C-5.14915785 7.08876323 -5.38286803 6.04546326 -5 2.3125 C-3 0.3125 -3 0.3125 0 0 Z " fill="#E4E4E4" transform="translate(93,88.6875)"/>
<path d="M0 0 C1.134375 0.020625 2.26875 0.04125 3.4375 0.0625 C3.4375 1.0525 3.4375 2.0425 3.4375 3.0625 C0.4675 2.5675 0.4675 2.5675 -2.5625 2.0625 C-1.16933123 4.84883754 0.59730516 4.99742694 3.4375 6.0625 C4.4375 7.0625 4.4375 7.0625 4.5 9.625 C4.479375 10.429375 4.45875 11.23375 4.4375 12.0625 C1.72870665 13.41689668 -0.57183268 13.12751451 -3.5625 13.0625 C-3.8925 11.7425 -4.2225 10.4225 -4.5625 9.0625 C-1.5925 9.5575 -1.5925 9.5575 1.4375 10.0625 C1.7675 9.4025 2.0975 8.7425 2.4375 8.0625 C0.1275 7.4025 -2.1825 6.7425 -4.5625 6.0625 C-4.605221 4.39638095 -4.60313832 2.72867115 -4.5625 1.0625 C-3.5625 0.0625 -3.5625 0.0625 0 0 Z " fill="#E8E8E8" transform="translate(53.5625,59.9375)"/>
<path d="M0 0 C0.99 0 1.98 0 3 0 C3 2.64 3 5.28 3 8 C3.99 8 4.98 8 6 8 C6 5.36 6 2.72 6 0 C6.99 0 7.98 0 9 0 C9 3.3 9 6.6 9 10 C2.84765625 10.09765625 2.84765625 10.09765625 1 10 C0 9 0 9 -0.09765625 6.93359375 C-0.08605469 6.10988281 -0.07445313 5.28617187 -0.0625 4.4375 C-0.05347656 3.61121094 -0.04445313 2.78492187 -0.03515625 1.93359375 C-0.02355469 1.29550781 -0.01195313 0.65742187 0 0 Z " fill="#DCDCDC" transform="translate(72,63)"/>
<path d="M0 0 C2.64 0 5.28 0 8 0 C8 0.66 8 1.32 8 2 C6.35 2 4.7 2 3 2 C3 2.99 3 3.98 3 5 C4.65 5 6.3 5 8 5 C8 5.99 8 6.98 8 8 C6.35 8 4.7 8 3 8 C3 9.65 3 11.3 3 13 C2.01 13 1.02 13 0 13 C0 8.71 0 4.42 0 0 Z " fill="#D3D3D3" transform="translate(40,86)"/>
<path d="M0 0 C6.15234375 -0.09765625 6.15234375 -0.09765625 8 0 C9 1 9 1 9.09765625 3.06640625 C9.08605469 3.89011719 9.07445313 4.71382813 9.0625 5.5625 C9.05347656 6.38878906 9.04445313 7.21507813 9.03515625 8.06640625 C9.02355469 8.70449219 9.01195313 9.34257813 9 10 C8.01 10 7.02 10 6 10 C6 7.36 6 4.72 6 2 C5.01 2.33 4.02 2.66 3 3 C2.67 5.31 2.34 7.62 2 10 C1.34 10 0.68 10 0 10 C0 6.7 0 3.4 0 0 Z " fill="#E5E5E5" transform="translate(100,89)"/>
<path d="M0 0 C6.15234375 -0.09765625 6.15234375 -0.09765625 8 0 C9 1 9 1 9.09765625 3.06640625 C9.08605469 3.89011719 9.07445313 4.71382813 9.0625 5.5625 C9.05347656 6.38878906 9.04445313 7.21507813 9.03515625 8.06640625 C9.02355469 8.70449219 9.01195313 9.34257813 9 10 C8.34 10 7.68 10 7 10 C7 7.36 7 4.72 7 2 C6.01 2.33 5.02 2.66 4 3 C3.67 5.31 3.34 7.62 3 10 C2.01 10 1.02 10 0 10 C0 6.7 0 3.4 0 0 Z " fill="#F3F3F3" transform="translate(69,89)"/>
<path d="M0 0 C0.94875 0.04125 1.8975 0.0825 2.875 0.125 C2.875 1.115 2.875 2.105 2.875 3.125 C1.225 2.795 -0.425 2.465 -2.125 2.125 C-2.125 4.105 -2.125 6.085 -2.125 8.125 C-0.475 7.465 1.175 6.805 2.875 6.125 C2.875 7.445 2.875 8.765 2.875 10.125 C0 10.25 0 10.25 -3.125 10.125 C-5.125 8.125 -5.125 8.125 -5.375 5.125 C-5.02345647 0.90647769 -4.22997422 0.16919897 0 0 Z " fill="#EAEAEA" transform="translate(96.125,62.875)"/>
<path d="M0 0 C0.99 0 1.98 0 3 0 C3 0.66 3 1.32 3 2 C3.99 2 4.98 2 6 2 C6 2.66 6 3.32 6 4 C5.01 4 4.02 4 3 4 C3 5.98 3 7.96 3 10 C3.99 10 4.98 10 6 10 C6 10.66 6 11.32 6 12 C4.33388095 12.042721 2.66617115 12.04063832 1 12 C-0.56367978 10.43632022 -0.383179 8.72161607 -0.625 6.5625 C-0.72039062 5.75941406 -0.81578125 4.95632812 -0.9140625 4.12890625 C-1 2 -1 2 0 0 Z " fill="#E0E0E0" transform="translate(81,87)"/>
<path d="M0 0 C0.99 0.103125 1.98 0.20625 3 0.3125 C5 3.3125 5 3.3125 5 6.3125 C4.34 6.3125 3.68 6.3125 3 6.3125 C2.34 5.3225 1.68 4.3325 1 3.3125 C0.01 2.9825 -0.98 2.6525 -2 2.3125 C-2 3.9625 -2 5.6125 -2 7.3125 C-2.99 7.3125 -3.98 7.3125 -5 7.3125 C-5.125 4.9375 -5.125 4.9375 -5 2.3125 C-3 0.3125 -3 0.3125 0 0 Z " fill="#E4E4E4" transform="translate(62,88.6875)"/>
<path d="M0 0 C1.98 0 3.96 0 6 0 C6 0.66 6 1.32 6 2 C5.01 2.495 5.01 2.495 4 3 C3.59270772 5.32156597 3.25561323 7.6568787 3 10 C2.01 10 1.02 10 0 10 C0 6.7 0 3.4 0 0 Z " fill="#E0E0E0" transform="translate(50,89)"/>
<path d="M0 0 C2.31 0 4.62 0 7 0 C7.33 1.98 7.66 3.96 8 6 C7.4225 5.814375 6.845 5.62875 6.25 5.4375 C3.79307475 4.95976454 2.35602466 5.24270636 0 6 C0 4.02 0 2.04 0 0 Z " fill="#0F0F0F" transform="translate(94,65)"/>
<path d="M0 0 C2.875 -0.1875 2.875 -0.1875 6 0 C8 3 8 3 8 6 C5.69 6 3.38 6 1 6 C0.67 4.02 0.34 2.04 0 0 Z " fill="#A4A4A4" transform="translate(90,89)"/>
<path d="M0 0 C1.65 0.33 3.3 0.66 5 1 C5 2.65 5 4.3 5 6 C2.29120665 7.35439668 -0.00933268 7.06501451 -3 7 C-3.33 5.68 -3.66 4.36 -4 3 C-1.03 3.495 -1.03 3.495 2 4 C2.33 3.34 2.66 2.68 3 2 C2.01 1.67 1.02 1.34 0 1 C0 0.67 0 0.34 0 0 Z " fill="#EFEFEF" transform="translate(53,66)"/>
<path d="M0 0 C0.99 0 1.98 0 3 0 C3 2.64 3 5.28 3 8 C2.01 8.495 2.01 8.495 1 9 C0.34 8.67 -0.32 8.34 -1 8 C-1.04241723 5.66705225 -1.04092937 3.33297433 -1 1 C-0.67 0.67 -0.34 0.34 0 0 Z " fill="#0E0E0E" transform="translate(103,91)"/>
<path d="M0 0 C1.98 0 3.96 0 6 0 C6 0.66 6 1.32 6 2 C5.01 2 4.02 2 3 2 C2.67 4.64 2.34 7.28 2 10 C1.34 10 0.68 10 0 10 C0 6.7 0 3.4 0 0 Z " fill="#F6F6F6" transform="translate(84,63)"/>
<path d="M0 0 C0.66 0 1.32 0 2 0 C3.60725635 3.21451269 3.05748185 6.43612536 3 10 C2.01 10 1.02 10 0 10 C0 6.7 0 3.4 0 0 Z " fill="#DDDDDD" transform="translate(69,89)"/>
<path d="M0 0 C0.66 0.33 1.32 0.66 2 1 C2 2.98 2 4.96 2 7 C1.01 7.495 1.01 7.495 0 8 C-0.99 7.67 -1.98 7.34 -3 7 C-3 5.02 -3 3.04 -3 1 C-2.01 0.67 -1.02 0.34 0 0 Z " fill="#0B0B0B" transform="translate(87,90)"/>
<path d="M0 0 C0.66 0.99 1.32 1.98 2 3 C4.86724686 2.42655063 5.8614515 2.1385485 8 0 C8 1.65 8 3.3 8 5 C4.625 5.625 4.625 5.625 1 6 C0.34 5.34 -0.32 4.68 -1 4 C-0.625 1.875 -0.625 1.875 0 0 Z " fill="#EFEFEF" transform="translate(61,67)"/>
<path d="M0 0 C0.33 0 0.66 0 1 0 C1 1.65 1 3.3 1 5 C2.65 4.34 4.3 3.68 6 3 C6 4.32 6 5.64 6 7 C3.125 7.1875 3.125 7.1875 0 7 C-0.66 6.01 -1.32 5.02 -2 4 C-1.34 4 -0.68 4 0 4 C0 2.68 0 1.36 0 0 Z " fill="#D3D3D3" transform="translate(93,66)"/>
<path d="M0 0 C0.66 0 1.32 0 2 0 C2 3.63 2 7.26 2 11 C-0.7839183 9.60804085 -0.97898997 7.84424221 -2 5 C-1.34 5 -0.68 5 0 5 C0 3.35 0 1.7 0 0 Z " fill="#FAFAFA" transform="translate(109,59)"/>
<path d="M0 0 C1.32 0.33 2.64 0.66 4 1 C3.67 2.65 3.34 4.3 3 6 C2.01 6 1.02 6 0 6 C0 4.02 0 2.04 0 0 Z " fill="#131313" transform="translate(114,91)"/>
<path d="M0 0 C1.32 0.33 2.64 0.66 4 1 C3.67 2.65 3.34 4.3 3 6 C2.01 6 1.02 6 0 6 C0 4.02 0 2.04 0 0 Z " fill="#0D0D0D" transform="translate(63,65)"/>
<path d="M0 0 C0.99 0 1.98 0 3 0 C3 1.98 3 3.96 3 6 C1.68 5.67 0.36 5.34 -1 5 C-0.67 3.35 -0.34 1.7 0 0 Z " fill="#0F0F0F" transform="translate(105,65)"/>
<path d="M0 0 C1.32 0 2.64 0 4 0 C3.625 1.9375 3.625 1.9375 3 4 C2.01 4.495 2.01 4.495 1 5 C0.34 5.99 -0.32 6.98 -1 8 C-1.125 2.25 -1.125 2.25 0 0 Z " fill="#292929" transform="translate(87,65)"/>
<path d="M0 0 C1.32 0.33 2.64 0.66 4 1 C3.67 2.65 3.34 4.3 3 6 C2.01 5.67 1.02 5.34 0 5 C0 3.35 0 1.7 0 0 Z " fill="#0B0B0B" transform="translate(60,91)"/>
<path d="M0 0 C1.65 0 3.3 0 5 0 C5 0.99 5 1.98 5 3 C4.01 2.67 3.02 2.34 2 2 C2 3.65 2 5.3 2 7 C0.4375 5.75 0.4375 5.75 -1 4 C-0.6875 1.8125 -0.6875 1.8125 0 0 Z " fill="#D5D5D5" transform="translate(112,89)"/>
<path d="M0 0 C1.65 0.33 3.3 0.66 5 1 C4.67 1.99 4.34 2.98 4 4 C2.35 3.67 0.7 3.34 -1 3 C-0.67 2.01 -0.34 1.02 0 0 Z " fill="#2C2C2C" transform="translate(51,67)"/>
</svg>
